<svg width="36" height="32" viewBox="0 0 36 32" fill="none" xmlns="http://www.w3.org/2000/svg">
<path d="M18 10H13.3333C12.9797 10 12.6406 10.1405 12.3905 10.3905C12.1405 10.6406 12 10.9797 12 11.3333V20.6667C12 21.0203 12.1405 21.3594 12.3905 21.6095C12.6406 21.8595 12.9797 22 13.3333 22H22.6667C23.0203 22 23.3594 21.8595 23.6095 21.6095C23.8595 21.3594 24 21.0203 24 20.6667V16" stroke="#0A0A0A" stroke-width="1.33333" stroke-linecap="round" stroke-linejoin="round"/>
<path d="M22.25 9.75015C22.5152 9.48493 22.8749 9.33594 23.25 9.33594C23.6251 9.33594 23.9848 9.48493 24.25 9.75015C24.5152 10.0154 24.6642 10.3751 24.6642 10.7502C24.6642 11.1252 24.5152 11.4849 24.25 11.7502L18.2413 17.7595C18.083 17.9176 17.8875 18.0334 17.6726 18.0962L15.7573 18.6562C15.6999 18.6729 15.6391 18.6739 15.5813 18.6591C15.5234 18.6442 15.4705 18.6141 15.4283 18.5719C15.386 18.5296 15.3559 18.4768 15.3411 18.4189C15.3262 18.361 15.3272 18.3002 15.344 18.2428L15.904 16.3275C15.967 16.1129 16.083 15.9175 16.2413 15.7595L22.25 9.75015Z" stroke="#0A0A0A" stroke-width="1.33333" stroke-linecap="round" stroke-linejoin="round"/>
</svg>
