<svg width="24" height="24" viewBox="0 0 24 24" fill="none" xmlns="http://www.w3.org/2000/svg">
<mask id="path-1-inside-1_2_2565" fill="white">
<path d="M0 12C0 5.37258 5.37258 0 12 0C18.6274 0 24 5.37258 24 12C24 18.6274 18.6274 24 12 24C5.37258 24 0 18.6274 0 12Z"/>
</mask>
<path d="M0 12C0 5.37258 5.37258 0 12 0C18.6274 0 24 5.37258 24 12C24 18.6274 18.6274 24 12 24C5.37258 24 0 18.6274 0 12Z" fill="#FAF9FB"/>
<path d="M12 24V23C5.92487 23 1 18.0751 1 12H0H-1C-1 19.1797 4.8203 25 12 25V24ZM24 12H23C23 18.0751 18.0751 23 12 23V24V25C19.1797 25 25 19.1797 25 12H24ZM12 0V1C18.0751 1 23 5.92487 23 12H24H25C25 4.8203 19.1797 -1 12 -1V0ZM12 0V-1C4.8203 -1 -1 4.8203 -1 12H0H1C1 5.92487 5.92487 1 12 1V0Z" fill="black" fill-opacity="0.1" mask="url(#path-1-inside-1_2_2565)"/>
<path d="M13.3313 6.66602C13.5719 6.66601 13.8079 6.73107 14.0145 6.85431C14.221 6.97754 14.3904 7.15435 14.5047 7.36602L14.8287 7.96602C14.9429 8.17768 15.1123 8.35449 15.3189 8.47772C15.5254 8.60096 15.7615 8.66602 16.002 8.66602H17.3333C17.687 8.66602 18.0261 8.80649 18.2762 9.05654C18.5262 9.30659 18.6667 9.64573 18.6667 9.99935V15.9993C18.6667 16.353 18.5262 16.6921 18.2762 16.9422C18.0261 17.1922 17.687 17.3327 17.3333 17.3327H6.66668C6.31305 17.3327 5.97392 17.1922 5.72387 16.9422C5.47382 16.6921 5.33334 16.353 5.33334 15.9993V9.99935C5.33334 9.64573 5.47382 9.30659 5.72387 9.05654C5.97392 8.80649 6.31305 8.66602 6.66668 8.66602H7.99801C8.23829 8.66603 8.47411 8.60111 8.68053 8.47813C8.88695 8.35514 9.0563 8.17866 9.17068 7.96735L9.49668 7.36468C9.61105 7.15337 9.7804 6.97689 9.98682 6.8539C10.1932 6.73092 10.4291 6.666 10.6693 6.66602H13.3313Z" stroke="#0A0A0A" stroke-width="1.33333" stroke-linecap="round" stroke-linejoin="round"/>
<path d="M12 14.666C13.1046 14.666 14 13.7706 14 12.666C14 11.5614 13.1046 10.666 12 10.666C10.8954 10.666 10 11.5614 10 12.666C10 13.7706 10.8954 14.666 12 14.666Z" stroke="#0A0A0A" stroke-width="1.33333" stroke-linecap="round" stroke-linejoin="round"/>
</svg>
