<svg width="16" height="16" viewBox="0 0 16 16" fill="none" xmlns="http://www.w3.org/2000/svg">
<g clip-path="url(#clip0_2_2670)">
<path d="M13.3333 8.66566C13.3333 11.999 11 13.6657 8.22666 14.6323C8.08143 14.6815 7.92368 14.6792 7.77999 14.6257C4.99999 13.6657 2.66666 11.999 2.66666 8.66566V3.999C2.66666 3.82219 2.73689 3.65262 2.86192 3.52759C2.98694 3.40257 3.15651 3.33233 3.33332 3.33233C4.66666 3.33233 6.33332 2.53233 7.49332 1.519C7.63456 1.39833 7.81423 1.33203 7.99999 1.33203C8.18575 1.33203 8.36542 1.39833 8.50666 1.519C9.67332 2.539 11.3333 3.33233 12.6667 3.33233C12.8435 3.33233 13.013 3.40257 13.1381 3.52759C13.2631 3.65262 13.3333 3.82219 13.3333 3.999V8.66566Z" stroke="#0A0A0A" stroke-width="1.33333" stroke-linecap="round" stroke-linejoin="round"/>
</g>
<defs>
<clipPath id="clip0_2_2670">
<rect width="16" height="16" fill="white"/>
</clipPath>
</defs>
</svg>
