<svg width="16" height="16" viewBox="0 0 16 16" fill="none" xmlns="http://www.w3.org/2000/svg">
<path d="M13.3333 6.66732C13.3333 9.99598 9.64066 13.4627 8.40066 14.5333C8.28514 14.6202 8.14452 14.6672 7.99999 14.6672C7.85546 14.6672 7.71484 14.6202 7.59932 14.5333C6.35932 13.4627 2.66666 9.99598 2.66666 6.66732C2.66666 5.25283 3.22856 3.89628 4.22875 2.89608C5.22895 1.89589 6.5855 1.33398 7.99999 1.33398C9.41448 1.33398 10.771 1.89589 11.7712 2.89608C12.7714 3.89628 13.3333 5.25283 13.3333 6.66732Z" stroke="#6A7282" stroke-width="1.33333" stroke-linecap="round" stroke-linejoin="round"/>
<path d="M8 8.66602C9.10457 8.66602 10 7.77059 10 6.66602C10 5.56145 9.10457 4.66602 8 4.66602C6.89543 4.66602 6 5.56145 6 6.66602C6 7.77059 6.89543 8.66602 8 8.66602Z" stroke="#6A7282" stroke-width="1.33333" stroke-linecap="round" stroke-linejoin="round"/>
</svg>
