<svg width="16" height="16" viewBox="0 0 16 16" fill="none" xmlns="http://www.w3.org/2000/svg">
<g clip-path="url(#clip0_2_2681)">
<path d="M8.00001 14.6673C11.6819 14.6673 14.6667 11.6825 14.6667 8.00065C14.6667 4.31875 11.6819 1.33398 8.00001 1.33398C4.31811 1.33398 1.33334 4.31875 1.33334 8.00065C1.33334 11.6825 4.31811 14.6673 8.00001 14.6673Z" stroke="#0A0A0A" stroke-width="1.33333" stroke-linecap="round" stroke-linejoin="round"/>
<path d="M6.06 6.00038C6.21673 5.55482 6.5261 5.17912 6.9333 4.9398C7.3405 4.70049 7.81926 4.61301 8.28478 4.69285C8.7503 4.7727 9.17254 5.01473 9.47672 5.37606C9.78089 5.7374 9.94737 6.19473 9.94666 6.66705C9.94666 8.00038 7.94666 8.66705 7.94666 8.66705" stroke="#0A0A0A" stroke-width="1.33333" stroke-linecap="round" stroke-linejoin="round"/>
<path d="M8 11.334H8.00667" stroke="#0A0A0A" stroke-width="1.33333" stroke-linecap="round" stroke-linejoin="round"/>
</g>
<defs>
<clipPath id="clip0_2_2681">
<rect width="16" height="16" fill="white"/>
</clipPath>
</defs>
</svg>
