<svg width="16" height="16" viewBox="0 0 16 16" fill="none" xmlns="http://www.w3.org/2000/svg">
<g clip-path="url(#clip0_2_2622)">
<path d="M9.22134 11.046C9.35903 11.1092 9.51414 11.1237 9.66114 11.0869C9.80813 11.0502 9.93823 10.9645 10.03 10.844L10.2667 10.534C10.3909 10.3684 10.5519 10.234 10.7371 10.1414C10.9222 10.0488 11.1263 10.0007 11.3333 10.0007H13.3333C13.687 10.0007 14.0261 10.1411 14.2762 10.3912C14.5262 10.6412 14.6667 10.9804 14.6667 11.334V13.334C14.6667 13.6876 14.5262 14.0267 14.2762 14.2768C14.0261 14.5268 13.687 14.6673 13.3333 14.6673C10.1507 14.6673 7.0985 13.403 4.84806 11.1526C2.59763 8.90216 1.33334 5.84992 1.33334 2.66732C1.33334 2.3137 1.47382 1.97456 1.72387 1.72451C1.97392 1.47446 2.31305 1.33398 2.66668 1.33398H4.66668C5.0203 1.33398 5.35944 1.47446 5.60949 1.72451C5.85953 1.97456 6.00001 2.3137 6.00001 2.66732V4.66732C6.00001 4.87431 5.95182 5.07846 5.85925 5.2636C5.76668 5.44874 5.63227 5.60979 5.46668 5.73398L5.15468 5.96798C5.03229 6.06144 4.94602 6.19437 4.91054 6.34422C4.87505 6.49406 4.89253 6.65157 4.96001 6.78998C5.87113 8.64056 7.36963 10.1372 9.22134 11.046Z" stroke="#6A7282" stroke-width="1.33333" stroke-linecap="round" stroke-linejoin="round"/>
</g>
<defs>
<clipPath id="clip0_2_2622">
<rect width="16" height="16" fill="white"/>
</clipPath>
</defs>
</svg>
