<svg width="16" height="16" viewBox="0 0 16 16" fill="none" xmlns="http://www.w3.org/2000/svg">
<g clip-path="url(#clip0_2_2675)">
<path d="M6.44732 2.75809C6.48406 2.37165 6.66354 2.01278 6.95072 1.75161C7.2379 1.49043 7.61214 1.3457 8.00032 1.3457C8.3885 1.3457 8.76274 1.49043 9.04992 1.75161C9.3371 2.01278 9.51659 2.37165 9.55332 2.75809C9.5754 3.00772 9.6573 3.24836 9.79208 3.45964C9.92686 3.67093 10.1106 3.84662 10.3276 3.97187C10.5447 4.09712 10.7888 4.16822 11.0391 4.17917C11.2895 4.19011 11.5388 4.14058 11.766 4.03475C12.1187 3.8746 12.5184 3.85143 12.8873 3.96974C13.2562 4.08805 13.5679 4.33939 13.7617 4.67482C13.9555 5.01026 14.0175 5.4058 13.9358 5.78447C13.854 6.16313 13.6343 6.49783 13.3193 6.72342C13.1142 6.86732 12.9468 7.05849 12.8313 7.28077C12.7157 7.50305 12.6554 7.74989 12.6554 8.00042C12.6554 8.25095 12.7157 8.49779 12.8313 8.72007C12.9468 8.94235 13.1142 9.13352 13.3193 9.27742C13.6343 9.50301 13.854 9.83771 13.9358 10.2164C14.0175 10.595 13.9555 10.9906 13.7617 11.326C13.5679 11.6615 13.2562 11.9128 12.8873 12.0311C12.5184 12.1494 12.1187 12.1262 11.766 11.9661C11.5388 11.8603 11.2895 11.8107 11.0391 11.8217C10.7888 11.8326 10.5447 11.9037 10.3276 12.029C10.1106 12.1542 9.92686 12.3299 9.79208 12.5412C9.6573 12.7525 9.5754 12.9931 9.55332 13.2428C9.51659 13.6292 9.3371 13.9881 9.04992 14.2492C8.76274 14.5104 8.3885 14.6551 8.00032 14.6551C7.61214 14.6551 7.2379 14.5104 6.95072 14.2492C6.66354 13.9881 6.48406 13.6292 6.44732 13.2428C6.42529 12.993 6.34339 12.7523 6.20857 12.5409C6.07375 12.3296 5.88997 12.1538 5.67281 12.0286C5.45565 11.9033 5.2115 11.8322 4.96104 11.8214C4.71058 11.8105 4.46119 11.8601 4.23399 11.9661C3.88125 12.1262 3.48154 12.1494 3.11266 12.0311C2.74377 11.9128 2.4321 11.6615 2.23831 11.326C2.04452 10.9906 1.98247 10.595 2.06423 10.2164C2.14599 9.83771 2.36572 9.50301 2.68066 9.27742C2.88574 9.13352 3.05314 8.94235 3.16872 8.72007C3.28429 8.49779 3.34463 8.25095 3.34463 8.00042C3.34463 7.74989 3.28429 7.50305 3.16872 7.28077C3.05314 7.05849 2.88574 6.86732 2.68066 6.72342C2.36617 6.49772 2.14682 6.16315 2.06526 5.78474C1.98369 5.40633 2.04573 5.01111 2.23931 4.67589C2.4329 4.34068 2.7442 4.0894 3.11272 3.97091C3.48123 3.85242 3.88065 3.87517 4.23332 4.03475C4.46049 4.14058 4.70982 4.19011 4.96019 4.17917C5.21056 4.16822 5.45461 4.09712 5.67168 3.97187C5.88875 3.84662 6.07245 3.67093 6.20723 3.45964C6.34202 3.24836 6.42391 3.00772 6.44599 2.75809" stroke="#0A0A0A" stroke-width="1.33333" stroke-linecap="round" stroke-linejoin="round"/>
<path d="M8 10C9.10457 10 10 9.10457 10 8C10 6.89543 9.10457 6 8 6C6.89543 6 6 6.89543 6 8C6 9.10457 6.89543 10 8 10Z" stroke="#0A0A0A" stroke-width="1.33333" stroke-linecap="round" stroke-linejoin="round"/>
</g>
<defs>
<clipPath id="clip0_2_2675">
<rect width="16" height="16" fill="white"/>
</clipPath>
</defs>
</svg>
